# Blender v2.91.0 OBJ File: 'LaserPistol.blend'
# www.blender.org
mtllib LaserPistol.mtl
o Cube
v 0.064723 0.063613 -0.316119
v 0.064723 0.063613 0.316555
v 0.068403 -0.054884 0.000218
v 0.064723 0.063613 0.000218
v 0.079139 -0.024691 -0.316119
v 0.079139 -0.024691 0.316555
v 0.079139 -0.024691 0.000218
v 0.044594 0.079139 0.000218
v 0.044594 -0.079139 0.316555
v 0.044594 -0.079139 0.000218
v 0.044594 0.079139 -0.316119
v 0.044594 -0.079139 -0.316119
v 0.044594 0.079139 0.316555
v 0.044594 -0.024691 0.316555
v 0.044594 -0.024691 -0.340907
v 0.079139 0.047840 -0.316119
v 0.079139 0.047840 0.316555
v 0.079139 0.047840 0.000218
v 0.044594 0.047840 0.316555
v 0.044594 0.047840 -0.340907
v 0.044594 -0.024691 0.368421
v 0.044594 0.047840 0.368421
v 0.026152 -0.015449 0.345059
v 0.026152 0.038597 0.345059
v 0.068403 -0.054884 -0.266677
v 0.064723 0.063613 -0.266677
v 0.079139 -0.024691 -0.266677
v 0.044594 0.079139 -0.266677
v 0.044594 -0.079139 -0.266677
v 0.079139 0.047840 -0.266677
v 0.035231 -0.009463 -0.353017
v 0.035231 0.032611 -0.353017
v 0.064723 0.063613 -0.105977
v 0.079139 -0.024691 -0.105977
v 0.044594 0.079139 -0.105977
v 0.044594 -0.079139 -0.105977
v 0.079139 0.047840 -0.105977
v 0.068403 -0.054884 -0.105977
v 0.068403 -0.054884 -0.150492
v 0.064723 0.063613 -0.150492
v 0.079139 -0.024691 -0.150492
v 0.044594 0.079139 -0.150492
v 0.044594 -0.079139 -0.150492
v 0.079139 0.047840 -0.150492
v 0.032751 -0.079139 0.000218
v 0.032751 -0.079139 -0.316119
v 0.032751 0.079139 0.316555
v 0.032751 -0.024691 0.316555
v 0.032751 0.079139 0.000218
v 0.032751 -0.079139 0.316555
v 0.032751 0.079139 -0.316119
v 0.032751 -0.024691 -0.340907
v 0.032751 0.047840 -0.340907
v 0.032751 0.047840 0.316555
v 0.032751 -0.024691 0.368421
v 0.032751 0.047840 0.368421
v 0.019207 -0.015449 0.345059
v 0.019207 0.038597 0.345059
v 0.032751 -0.079139 -0.266677
v 0.032751 0.079139 -0.266677
v 0.025874 -0.009463 -0.353017
v 0.025874 0.032611 -0.353017
v 0.032751 -0.079139 -0.105977
v 0.032751 0.079139 -0.105977
v 0.032751 0.079139 -0.150492
v 0.032751 -0.079139 -0.150492
v 0.027570 -0.222312 -0.197476
v 0.027570 -0.222312 -0.227907
v -0.064723 0.063613 -0.316119
v 0.000000 0.032611 -0.353017
v -0.064723 0.063613 0.316555
v 0.000000 0.079139 0.000218
v 0.000000 -0.079139 0.000218
v -0.068403 -0.054884 0.000218
v -0.064723 0.063613 0.000218
v 0.000000 -0.079139 -0.316119
v 0.000000 0.079139 0.316555
v 0.000000 -0.079139 0.316555
v 0.000000 0.079139 -0.316119
v -0.079139 -0.024691 -0.316119
v -0.079139 -0.024691 0.316555
v -0.079139 -0.024691 0.000218
v 0.000000 -0.024691 -0.340907
v 0.000000 -0.024691 0.316555
v -0.044594 0.079139 0.000218
v -0.044594 -0.079139 0.316555
v -0.044594 -0.079139 0.000218
v -0.044594 0.079139 -0.316119
v -0.044594 -0.079139 -0.316119
v -0.044594 0.079139 0.316555
v -0.044594 -0.024691 0.316555
v -0.044594 -0.024691 -0.340907
v -0.079139 0.047840 -0.316119
v -0.079139 0.047840 0.316555
v -0.079139 0.047840 0.000218
v 0.000000 0.047840 -0.340907
v 0.000000 0.047840 0.316555
v -0.044594 0.047840 0.316555
v -0.044594 0.047840 -0.340907
v 0.000000 0.047840 0.368421
v 0.000000 -0.024691 0.368421
v -0.044594 -0.024691 0.368421
v -0.044594 0.047840 0.368421
v 0.000000 0.038597 0.345059
v 0.000000 -0.015449 0.345059
v -0.026152 -0.015449 0.345059
v -0.026152 0.038597 0.345059
v 0.000000 0.079139 -0.266677
v 0.000000 -0.079139 -0.266677
v -0.068403 -0.054884 -0.266677
v -0.064723 0.063613 -0.266677
v -0.079139 -0.024691 -0.266677
v -0.044594 0.079139 -0.266677
v -0.044594 -0.079139 -0.266677
v -0.079139 0.047840 -0.266677
v 0.000000 -0.009463 -0.353017
v -0.035231 -0.009463 -0.353017
v -0.035231 0.032611 -0.353017
v 0.000000 0.079139 -0.105977
v 0.000000 -0.079139 -0.105977
v -0.064723 0.063613 -0.105977
v -0.079139 -0.024691 -0.105977
v -0.044594 0.079139 -0.105977
v -0.044594 -0.079139 -0.105977
v -0.079139 0.047840 -0.105977
v -0.068403 -0.054884 -0.105977
v -0.068403 -0.054884 -0.150492
v 0.000000 0.079139 -0.150492
v 0.000000 -0.079139 -0.150492
v -0.064723 0.063613 -0.150492
v -0.079139 -0.024691 -0.150492
v -0.044594 0.079139 -0.150492
v -0.044594 -0.079139 -0.150492
v -0.079139 0.047840 -0.150492
v -0.032751 -0.079139 0.000218
v -0.032751 -0.079139 -0.316119
v -0.032751 0.079139 0.316555
v -0.032751 -0.024691 0.316555
v -0.032751 0.079139 0.000218
v -0.032751 -0.079139 0.316555
v -0.032751 0.079139 -0.316119
v -0.032751 -0.024691 -0.340907
v -0.032751 0.047840 -0.340907
v -0.032751 0.047840 0.316555
v -0.032751 -0.024691 0.368421
v -0.032751 0.047840 0.368421
v -0.019207 -0.015449 0.345059
v -0.019207 0.038597 0.345059
v -0.032751 -0.079139 -0.266677
v -0.032751 0.079139 -0.266677
v -0.025874 -0.009463 -0.353017
v -0.025874 0.032611 -0.353017
v -0.032751 -0.079139 -0.105977
v -0.032751 0.079139 -0.105977
v -0.032751 0.079139 -0.150492
v -0.032751 -0.079139 -0.150492
v 0.000000 -0.222312 -0.227907
v 0.000000 -0.222312 -0.197476
v -0.027570 -0.222312 -0.197476
v -0.027570 -0.222312 -0.227907
vt 0.320437 0.559739
vt 0.375000 0.559739
vt 0.375000 0.625000
vt 0.320437 0.625000
vt 0.698270 0.559739
vt 0.750000 0.559739
vt 0.750000 0.625000
vt 0.698270 0.625000
vt 0.375000 0.823270
vt 0.461000 0.823270
vt 0.461000 0.875000
vt 0.375000 0.875000
vt 0.575563 0.625000
vt 0.625000 0.625000
vt 0.625000 0.750000
vt 0.575563 0.750000
vt 0.575563 0.445437
vt 0.625000 0.445437
vt 0.625000 0.500000
vt 0.575563 0.500000
vt 0.461000 0.559739
vt 0.461000 0.625000
vt 0.575563 0.559739
vt 0.625000 0.559739
vt 0.575563 0.823270
vt 0.625000 0.823270
vt 0.625000 0.875000
vt 0.575563 0.875000
vt 0.750000 0.750000
vt 0.698270 0.750000
vt 0.320437 0.519537
vt 0.320437 0.500000
vt 0.461000 0.500000
vt 0.461000 0.519537
vt 0.375000 0.426730
vt 0.461000 0.426730
vt 0.461000 0.445437
vt 0.375000 0.445437
vt 0.679563 0.625000
vt 0.679563 0.750000
vt 0.625000 0.804564
vt 0.575563 0.804564
vt 0.575563 0.426730
vt 0.625000 0.426730
vt 0.301730 0.625000
vt 0.320437 0.750000
vt 0.301730 0.750000
vt 0.375000 0.804564
vt 0.461000 0.750000
vt 0.461000 0.804564
vt 0.679563 0.559739
vt 0.301730 0.559739
vt 0.461000 0.375000
vt 0.461000 0.375000
vt 0.461000 0.426730
vt 0.461000 0.804564
vt 0.461000 0.823270
vt 0.575563 0.804564
vt 0.575563 0.804564
vt 0.461000 0.804564
vt 0.575563 0.519537
vt 0.575563 0.875000
vt 0.575563 0.823270
vt 0.461000 0.823270
vt 0.575563 0.823270
vt 0.575563 0.875000
vt 0.461000 0.875000
vt 0.301730 0.500000
vt 0.301730 0.519537
vt 0.679563 0.500000
vt 0.679563 0.519537
vt 0.625000 0.519537
vt 0.375000 0.519537
vt 0.698270 0.500000
vt 0.750000 0.500000
vt 0.750000 0.519537
vt 0.698270 0.519537
vt 0.575563 0.426730
vt 0.575563 0.445437
vt 0.461000 0.445437
vt 0.461000 0.542149
vt 0.575563 0.542149
vt 0.301730 0.542149
vt 0.320437 0.542149
vt 0.625000 0.542149
vt 0.679563 0.542149
vt 0.375000 0.542149
vt 0.698270 0.542149
vt 0.750000 0.542149
vt 0.250000 0.519537
vt 0.250000 0.542149
vt 0.301730 0.542149
vt 0.250000 0.542149
vt 0.575563 0.375000
vt 0.575563 0.375000
vt 0.461000 0.875000
vt 0.250000 0.500000
vt 0.250000 0.559739
vt 0.250000 0.625000
vt 0.250000 0.750000
vt 0.625000 0.375000
vt 0.375000 0.375000
vt 0.301730 0.559739
vt 0.250000 0.559739
vt 0.320437 0.559739
vt 0.320437 0.625000
vt 0.375000 0.625000
vt 0.375000 0.559739
vt 0.698270 0.559739
vt 0.698270 0.625000
vt 0.375000 0.823270
vt 0.461000 0.823270
vt 0.575563 0.625000
vt 0.575563 0.750000
vt 0.625000 0.750000
vt 0.625000 0.625000
vt 0.575563 0.445437
vt 0.575563 0.500000
vt 0.625000 0.500000
vt 0.625000 0.445437
vt 0.461000 0.625000
vt 0.461000 0.559739
vt 0.575563 0.559739
vt 0.625000 0.559739
vt 0.575563 0.823270
vt 0.625000 0.823270
vt 0.698270 0.750000
vt 0.320437 0.519537
vt 0.461000 0.519537
vt 0.461000 0.500000
vt 0.320437 0.500000
vt 0.375000 0.426730
vt 0.375000 0.445437
vt 0.461000 0.445437
vt 0.461000 0.426730
vt 0.679563 0.750000
vt 0.679563 0.625000
vt 0.575563 0.804564
vt 0.625000 0.804564
vt 0.575563 0.426730
vt 0.625000 0.426730
vt 0.301730 0.625000
vt 0.301730 0.750000
vt 0.320437 0.750000
vt 0.375000 0.804564
vt 0.461000 0.804564
vt 0.461000 0.750000
vt 0.679563 0.559739
vt 0.301730 0.559739
vt 0.461000 0.426730
vt 0.461000 0.823270
vt 0.461000 0.804564
vt 0.461000 0.804564
vt 0.575563 0.804564
vt 0.575563 0.804564
vt 0.575563 0.519537
vt 0.575563 0.823270
vt 0.461000 0.823270
vt 0.575563 0.823270
vt 0.301730 0.500000
vt 0.301730 0.519537
vt 0.625000 0.519537
vt 0.679563 0.519537
vt 0.679563 0.500000
vt 0.375000 0.519537
vt 0.698270 0.500000
vt 0.698270 0.519537
vt 0.461000 0.445437
vt 0.575563 0.445437
vt 0.575563 0.426730
vt 0.461000 0.542149
vt 0.575563 0.542149
vt 0.301730 0.542149
vt 0.320437 0.542149
vt 0.625000 0.542149
vt 0.679563 0.542149
vt 0.375000 0.542149
vt 0.698270 0.542149
vt 0.301730 0.542149
vt 0.301730 0.559739
vn 0.7136 -0.7005 0.0000
vn 0.0000 1.0000 0.0000
vn 0.0000 0.0000 1.0000
vn 0.7382 0.6746 0.0000
vn 0.4708 0.5196 -0.7130
vn 0.9422 -0.3350 0.0000
vn 0.8444 -0.5357 0.0000
vn 0.0000 -0.4143 -0.9101
vn 0.6107 0.7918 0.0000
vn 0.0000 0.6208 -0.7839
vn 0.0000 -1.0000 0.0000
vn 0.0000 -0.6224 -0.7827
vn 1.0000 0.0000 0.0000
vn 0.5830 0.0000 -0.8125
vn -0.7849 0.0000 0.6196
vn 0.0000 -0.9299 0.3679
vn 0.0000 0.9299 0.3679
vn 0.0000 0.0000 -1.0000
vn 0.5468 -0.3469 -0.7620
vn 0.0000 0.6224 -0.7827
vn 0.7911 0.0000 -0.6117
vn 0.0000 0.4756 -0.8796
vn 0.9993 -0.0362 0.0000
vn 0.0000 -0.5385 0.8426
vn -0.7136 -0.7005 0.0000
vn -0.7382 0.6746 0.0000
vn -0.4708 0.5196 -0.7130
vn -0.9422 -0.3350 0.0000
vn -0.8444 -0.5357 0.0000
vn -0.6107 0.7918 0.0000
vn -1.0000 0.0000 0.0000
vn -0.5830 0.0000 -0.8125
vn 0.7849 0.0000 0.6196
vn -0.5468 -0.3469 -0.7620
vn -0.7911 0.0000 -0.6117
vn -0.9993 -0.0362 0.0000
usemtl Material
s off
f 36/1/1 38/2/1 3/3/1 10/4/1
f 64/5/2 119/6/2 72/7/2 49/8/2
f 50/9/3 48/10/3 84/11/3 78/12/3
f 18/13/4 4/14/4 2/15/4 17/16/4
f 20/17/5 11/18/5 1/19/5 16/20/5
f 38/2/6 34/21/6 7/22/6 3/3/6
f 37/23/4 33/24/4 4/14/4 18/13/4
f 54/25/3 47/26/3 77/27/3 97/28/3
f 49/8/2 72/7/2 77/29/2 47/30/2
f 29/31/7 12/32/7 5/33/7 27/34/7
f 46/35/8 52/36/8 15/37/8 12/38/8
f 4/14/9 8/39/9 13/40/9 2/15/9
f 17/16/3 2/15/3 13/41/3 19/42/3
f 53/43/10 51/44/10 11/18/10 20/17/10
f 45/45/11 10/4/11 9/46/11 50/47/11
f 9/48/3 6/49/3 14/50/3
f 33/24/9 35/51/9 8/39/9 4/14/9
f 63/52/11 36/1/11 10/4/11 45/45/11
f 3/3/3 7/22/3 10/4/3
f 9/46/7 10/4/7 7/22/7 6/49/7
f 52/36/12 83/53/12 116/54/12 61/55/12
f 6/49/3 17/16/3 19/42/3 14/50/3
f 48/10/11 14/50/11 21/56/11 55/57/11
f 34/21/13 37/23/13 18/13/13 7/22/13
f 15/37/14 20/17/14 16/20/14 5/33/14
f 7/22/13 18/13/13 17/16/13 6/49/13
f 21/56/15 22/58/15 24/59/15 23/60/15
f 14/50/13 19/42/13 22/58/13 21/56/13
f 5/33/13 16/20/13 30/61/13 27/34/13
f 54/25/2 97/28/2 100/62/2 56/63/2
f 57/64/3 58/65/3 104/66/3 105/67/3
f 46/68/11 12/32/11 29/31/11 59/69/11
f 56/63/16 100/62/16 104/66/16 58/65/16
f 55/57/17 21/56/17 23/60/17 57/64/17
f 1/19/9 11/70/9 28/71/9 26/72/9
f 16/20/4 1/19/4 26/72/4 30/61/4
f 29/31/18 27/34/18 25/73/18
f 51/74/2 79/75/2 108/76/2 60/77/2
f 5/33/19 12/38/19 15/37/19
f 61/55/18 62/78/18 32/79/18 31/80/18
f 53/43/20 20/17/20 32/79/20 62/78/20
f 20/17/21 15/37/21 31/80/21 32/79/21
f 41/81/13 44/82/13 37/23/13 34/21/13
f 66/83/11 43/84/11 36/1/11 63/52/11
f 40/85/9 42/86/9 35/51/9 33/24/9
f 44/82/4 40/85/4 33/24/4 37/23/4
f 39/87/6 41/81/6 34/21/6 38/2/6
f 65/88/2 128/89/2 119/6/2 64/5/2
f 43/84/1 39/87/1 38/2/1 36/1/1
f 29/31/1 25/73/1 39/87/1 43/84/1
f 60/77/2 108/76/2 128/89/2 65/88/2
f 25/73/6 27/34/6 41/81/6 39/87/6
f 30/61/4 26/72/4 40/85/4 44/82/4
f 26/72/9 28/71/9 42/86/9 40/85/9
f 59/69/11 29/31/11 43/84/11 66/83/11
f 27/34/13 30/61/13 44/82/13 41/81/13
f 109/90/11 59/69/11 66/83/11 129/91/11
f 28/71/2 60/77/2 65/88/2 42/86/2
f 42/86/2 65/88/2 64/5/2 35/51/2
f 129/91/22 66/83/22 68/92/22 157/93/22
f 96/94/20 53/43/20 62/78/20 70/95/20
f 116/54/18 70/95/18 62/78/18 61/55/18
f 11/70/2 51/74/2 60/77/2 28/71/2
f 101/96/17 55/57/17 57/64/17 105/67/17
f 22/58/16 56/63/16 58/65/16 24/59/16
f 76/97/11 46/68/11 59/69/11 109/90/11
f 23/60/3 24/59/3 58/65/3 57/64/3
f 19/42/2 54/25/2 56/63/2 22/58/2
f 84/11/11 48/10/11 55/57/11 101/96/11
f 15/37/12 52/36/12 61/55/12 31/80/12
f 120/98/11 63/52/11 45/45/11 73/99/11
f 73/99/11 45/45/11 50/47/11 78/100/11
f 96/94/10 79/101/10 51/44/10 53/43/10
f 76/102/8 83/53/8 52/36/8 46/35/8
f 8/39/2 49/8/2 47/30/2 13/40/2
f 19/42/3 13/41/3 47/26/3 54/25/3
f 9/48/3 14/50/3 48/10/3 50/9/3
f 35/51/2 64/5/2 49/8/2 8/39/2
f 157/93/11 68/92/11 67/103/11 158/104/11
f 66/83/23 63/52/23 67/103/23 68/92/23
f 63/52/24 120/98/24 158/104/24 67/103/24
f 124/105/25 87/106/25 74/107/25 126/108/25
f 154/109/2 139/110/2 72/7/2 119/6/2
f 140/111/3 78/12/3 84/11/3 138/112/3
f 95/113/26 94/114/26 71/115/26 75/116/26
f 99/117/27 93/118/27 69/119/27 88/120/27
f 126/108/28 74/107/28 82/121/28 122/122/28
f 125/123/26 95/113/26 75/116/26 121/124/26
f 144/125/3 97/28/3 77/27/3 137/126/3
f 139/110/2 137/127/2 77/29/2 72/7/2
f 114/128/29 112/129/29 80/130/29 89/131/29
f 136/132/8 89/133/8 92/134/8 142/135/8
f 75/116/30 71/115/30 90/136/30 85/137/30
f 94/114/3 98/138/3 90/139/3 71/115/3
f 143/140/10 99/117/10 88/120/10 141/141/10
f 135/142/11 140/143/11 86/144/11 87/106/11
f 86/145/3 91/146/3 81/147/3
f 121/124/30 75/116/30 85/137/30 123/148/30
f 153/149/11 135/142/11 87/106/11 124/105/11
f 74/107/3 87/106/3 82/121/3
f 86/144/29 81/147/29 82/121/29 87/106/29
f 142/135/12 151/150/12 116/54/12 83/53/12
f 81/147/3 91/146/3 98/138/3 94/114/3
f 138/112/11 145/151/11 102/152/11 91/146/11
f 122/122/31 82/121/31 95/113/31 125/123/31
f 92/134/32 80/130/32 93/118/32 99/117/32
f 82/121/31 81/147/31 94/114/31 95/113/31
f 102/152/33 106/153/33 107/154/33 103/155/33
f 91/146/31 102/152/31 103/155/31 98/138/31
f 80/130/31 112/129/31 115/156/31 93/118/31
f 144/125/2 146/157/2 100/62/2 97/28/2
f 147/158/3 105/67/3 104/66/3 148/159/3
f 136/160/11 149/161/11 114/128/11 89/131/11
f 146/157/16 148/159/16 104/66/16 100/62/16
f 145/151/17 147/158/17 106/153/17 102/152/17
f 69/119/30 111/162/30 113/163/30 88/164/30
f 93/118/26 115/156/26 111/162/26 69/119/26
f 114/128/18 110/165/18 112/129/18
f 141/166/2 150/167/2 108/76/2 79/75/2
f 80/130/34 92/134/34 89/133/34
f 151/150/18 117/168/18 118/169/18 152/170/18
f 143/140/20 152/170/20 118/169/20 99/117/20
f 99/117/35 118/169/35 117/168/35 92/134/35
f 131/171/31 122/122/31 125/123/31 134/172/31
f 156/173/11 153/149/11 124/105/11 133/174/11
f 130/175/30 121/124/30 123/148/30 132/176/30
f 134/172/26 125/123/26 121/124/26 130/175/26
f 127/177/28 126/108/28 122/122/28 131/171/28
f 155/178/2 154/109/2 119/6/2 128/89/2
f 133/174/25 124/105/25 126/108/25 127/177/25
f 114/128/25 133/174/25 127/177/25 110/165/25
f 150/167/2 155/178/2 128/89/2 108/76/2
f 110/165/28 127/177/28 131/171/28 112/129/28
f 115/156/26 134/172/26 130/175/26 111/162/26
f 111/162/30 130/175/30 132/176/30 113/163/30
f 149/161/11 156/173/11 133/174/11 114/128/11
f 112/129/31 131/171/31 134/172/31 115/156/31
f 109/90/11 129/91/11 156/173/11 149/161/11
f 113/163/2 132/176/2 155/178/2 150/167/2
f 132/176/2 123/148/2 154/109/2 155/178/2
f 129/91/22 157/93/22 160/179/22 156/173/22
f 96/94/20 70/95/20 152/170/20 143/140/20
f 116/54/18 151/150/18 152/170/18 70/95/18
f 88/164/2 113/163/2 150/167/2 141/166/2
f 101/96/17 105/67/17 147/158/17 145/151/17
f 103/155/16 107/154/16 148/159/16 146/157/16
f 76/97/11 109/90/11 149/161/11 136/160/11
f 106/153/3 147/158/3 148/159/3 107/154/3
f 98/138/2 103/155/2 146/157/2 144/125/2
f 84/11/11 101/96/11 145/151/11 138/112/11
f 92/134/12 117/168/12 151/150/12 142/135/12
f 120/98/11 73/99/11 135/142/11 153/149/11
f 73/99/11 78/100/11 140/143/11 135/142/11
f 96/94/10 143/140/10 141/141/10 79/101/10
f 76/102/8 136/132/8 142/135/8 83/53/8
f 85/137/2 90/136/2 137/127/2 139/110/2
f 98/138/3 144/125/3 137/126/3 90/139/3
f 86/145/3 140/111/3 138/112/3 91/146/3
f 123/148/2 85/137/2 139/110/2 154/109/2
f 157/93/11 158/104/11 159/180/11 160/179/11
f 156/173/36 160/179/36 159/180/36 153/149/36
f 153/149/24 159/180/24 158/104/24 120/98/24
